<?xml version="1.0" encoding="utf-8"?>
<svg viewBox="1107.60009765625 831.4000244140625 130.7999267578125 166.89990234375" width="130.7999267578125" height="166.89990234375" xmlns="http://www.w3.org/2000/svg"><g transform="matrix(1, 0, 0, 1, 0, 0)">
			<path fill="#CCCCCC" d="M1166.7,832.5l-6.6,20.7c1.3,0.4,2.6,1,3.8,1.6l10.2-19.2C1171.6,834.4,1169.2,833.3,1166.7,832.5z"/>
			<path fill="#CCCCCC" d="M1147.9,852.6l-4.5-21.2c-2.6,0.5-5.1,1.3-7.5,2.3l8.2,20.1C1145.2,853.3,1146.5,852.9,1147.9,852.6z"/>
			<path fill="#CCCCCC" d="M1135.3,891.3l-16.1,14.5c1.8,2,3.7,3.8,5.8,5.4l13.4-17.1C1137.2,893.3,1136.2,892.3,1135.3,891.3z"/>
			<path fill="#CCCCCC" d="M1134.2,861.1l-17.1-13.4c-1.6,2.1-3.1,4.3-4.3,6.6l19.2,10.2C1132.6,863.4,1133.4,862.2,1134.2,861.1z"/>
			<path fill="#CCCCCC" d="M1129.3,876.4l-21.7,0.7c0.1,2.6,0.4,5.3,1,7.8l21.2-4.5C1129.5,879.2,1129.3,877.8,1129.3,876.4z"/>
			<path fill="#CCCCCC" d="M1206.1,858.3h-12v30c2,1.8,3.3,5,3.3,8.7s-1.3,6.9-3.3,8.7v9.2c0,2.1-1.7,3.9-3.9,3.9h-48.2V966&#10;&#9;&#9;&#9;&#9;c0,17.8,14.5,32.3,32.3,32.3h31.7c17.8,0,32.3-14.5,32.3-32.3v-75.4C1238.4,872.8,1223.9,858.3,1206.1,858.3z"/>
			<path fill="#CCCCCC" d="M1186.3,914.9v-9.2c-2-1.8-3.3-5-3.3-8.7c0-3.7,1.3-6.9,3.3-8.7v-30h-12c-17.8,0-32.3,14.5-32.3,32.3&#10;&#9;&#9;&#9;&#9;v28.2h48.2C1188.1,918.8,1186.3,917,1186.3,914.9z M1146.1,890.6c0-15.6,12.7-28.3,28.3-28.3h8v24.4c-2.1,2.7-3.3,6.4-3.3,10.3&#10;&#9;&#9;&#9;&#9;s1.2,7.6,3.3,10.3v7.6h-36.3V890.6z"/>
		</g></svg>